name D:\school\WTK\thesis\model\3dpredictsim\Results\MidTarsalJoint\Fal_s1_bCst_PF_Natali2010_ls150_MT_k300_MTP_T5_ig23_v27.mot
datacolumns 128
datarows 4
range 0.57930490 0.59668405
endheader
time	pelvis_tilt	pelvis_list	pelvis_rotation	pelvis_tx	pelvis_ty	pelvis_tz	hip_flexion_l	hip_adduction_l	hip_rotation_l	hip_flexion_r	hip_adduction_r	hip_rotation_r	knee_angle_l	knee_angle_r	ankle_angle_l	ankle_angle_r	subtalar_angle_l	subtalar_angle_r	mtj_angle_l	mtj_angle_r	mtp_angle_l	mtp_angle_r	lumbar_extension	lumbar_bending	lumbar_rotation	arm_flex_l	arm_add_l	arm_rot_l	arm_flex_r	arm_add_r	arm_rot_r	elbow_flex_l	elbow_flex_r	pro_sup_l	pro_sup_r	glut_med1_l/activation	glut_med2_l/activation	glut_med3_l/activation	glut_min1_l/activation	glut_min2_l/activation	glut_min3_l/activation	semimem_l/activation	semiten_l/activation	bifemlh_l/activation	bifemsh_l/activation	sar_l/activation	add_long_l/activation	add_brev_l/activation	add_mag1_l/activation	add_mag2_l/activation	add_mag3_l/activation	tfl_l/activation	pect_l/activation	grac_l/activation	glut_max1_l/activation	glut_max2_l/activation	glut_max3_l/activation	iliacus_l/activation	psoas_l/activation	quad_fem_l/activation	gem_l/activation	peri_l/activation	rect_fem_l/activation	vas_med_l/activation	vas_int_l/activation	vas_lat_l/activation	med_gas_l/activation	lat_gas_l/activation	soleus_l/activation	tib_post_l/activation	flex_dig_l/activation	flex_hal_l/activation	tib_ant_l/activation	per_brev_l/activation	per_long_l/activation	per_tert_l/activation	ext_dig_l/activation	ext_hal_l/activation	ercspn_l/activation	intobl_l/activation	extobl_l/activation	glut_med1_r/activation	glut_med2_r/activation	glut_med3_r/activation	glut_min1_r/activation	glut_min2_r/activation	glut_min3_r/activation	semimem_r/activation	semiten_r/activation	bifemlh_r/activation	bifemsh_r/activation	sar_r/activation	add_long_r/activation	add_brev_r/activation	add_mag1_r/activation	add_mag2_r/activation	add_mag3_r/activation	tfl_r/activation	pect_r/activation	grac_r/activation	glut_max1_r/activation	glut_max2_r/activation	glut_max3_r/activation	iliacus_r/activation	psoas_r/activation	quad_fem_r/activation	gem_r/activation	peri_r/activation	rect_fem_r/activation	vas_med_r/activation	vas_int_r/activation	vas_lat_r/activation	med_gas_r/activation	lat_gas_r/activation	soleus_r/activation	tib_post_r/activation	flex_dig_r/activation	flex_hal_r/activation	tib_ant_r/activation	per_brev_r/activation	per_long_r/activation	per_tert_r/activation	ext_dig_r/activation	ext_hal_r/activation	ercspn_r/activation	intobl_r/activation	extobl_r/activation	
          0.57930490	        -13.03883801	         -0.77126969	         -1.70779104	          1.56412324	          0.89848942	          0.00045604	          4.56911233	          1.68196317	          2.80281071	         45.37482552	          3.77301154	         -1.70248610	        -39.66278252	        -30.95348501	         -6.82599198	         12.02933279	          6.99408132	         -1.89173799	         -1.60982187	          0.03389563	         14.09313409	          0.55615714	          2.86461800	          2.47877703	         -2.25692334	          2.06610884	        -13.55751804	         19.30502675	         -5.21091231	        -13.48194131	          4.59033459	         30.44909782	         55.10403872	         86.51662706	         86.51662706	          0.10186448	          0.05639531	          0.06012137	          0.11684025	          0.09885255	          0.10313913	          0.09587220	          0.06134889	          0.05493518	          0.07373959	          0.32397275	          0.74109220	          0.25666260	          0.06820461	          0.06011290	          0.05000027	          0.94977188	          0.44503529	          0.18589957	          0.05000102	          0.05000040	          0.05000025	          0.66276386	          0.90343302	          0.60557202	          0.58433465	          0.15111633	          0.48334299	          0.07228776	          0.07797933	          0.06594611	          0.12592251	          0.17832115	          0.07454344	          0.18716005	          0.20934860	          0.18349975	          0.25225916	          0.07168215	          0.07085134	          0.30218452	          0.92510402	          0.84356559	          0.12714159	          0.20034962	          0.05000004	          0.13359552	          0.15135898	          0.19556869	          0.06592604	          0.06592595	          0.06593187	          0.51680376	          0.07229085	          0.51402451	          0.05000044	          0.11082847	          0.07026230	          0.18706184	          0.44099307	          0.44408094	          0.38763907	          0.05346414	          0.05004267	          0.07229205	          0.37197727	          0.39179292	          0.49759535	          0.06200484	          0.06287189	          0.17466368	          0.08519394	          0.52276834	          0.05000016	          0.07414308	          0.07948300	          0.08572885	          0.06592582	          0.06592567	          0.05482767	          0.29733044	          0.05000170	          0.05479110	          0.26870829	          0.42106274	          0.19690267	          0.44038112	          0.74813503	          0.12200633	          0.20481272	          0.05000004	          0.05000021	
          0.58509795	        -13.01177867	         -0.72132461	         -1.63973586	          1.58044627	          0.89696504	          0.00046254	          5.02393597	          1.71683042	          2.69393813	         45.11047157	          3.93537108	         -1.44573185	        -41.40127114	        -30.86702321	         -6.28189040	         11.33429058	          7.45181993	         -2.26028657	         -1.52174165	          0.09418853	         12.84717416	          0.50564933	          2.94344090	          2.52430363	         -2.23699080	          2.00940128	        -13.55657520	         19.34485873	         -5.18502512	        -13.46295170	          4.57819681	         30.35934641	         54.66502089	         86.51662706	         86.51662706	          0.09289536	          0.05142983	          0.05482774	          0.10655253	          0.09014865	          0.09405781	          0.09698283	          0.08239507	          0.07947823	          0.07725676	          0.31339905	          0.69348123	          0.30596167	          0.06219950	          0.05482065	          0.05000025	          0.96376560	          0.51776055	          0.21817911	          0.05000096	          0.05000030	          0.05000015	          0.60440780	          0.82388634	          0.55225199	          0.61222478	          0.13781069	          0.52902552	          0.06592286	          0.07111329	          0.06013959	          0.11483510	          0.16262006	          0.06797993	          0.17068071	          0.19091564	          0.16734271	          0.23757555	          0.06537059	          0.06461293	          0.38608796	          0.94597040	          0.88714705	          0.12058184	          0.21629618	          0.05000003	          0.12183252	          0.13803194	          0.17834903	          0.06012142	          0.06012135	          0.06012674	          0.47129942	          0.06592577	          0.46876489	          0.06584499	          0.10107009	          0.06411681	          0.20047954	          0.43126850	          0.43136987	          0.37955684	          0.05000513	          0.05010655	          0.06592812	          0.38169141	          0.39391948	          0.47744567	          0.05654541	          0.05733612	          0.20248355	          0.07769280	          0.54898412	          0.05000009	          0.09872375	          0.10567142	          0.11874698	          0.06012112	          0.06012102	          0.05000018	          0.27116114	          0.05000027	          0.05000027	          0.27763015	          0.39968869	          0.17956560	          0.59629358	          0.81830337	          0.25318131	          0.18711380	          0.05000004	          0.05000056	
          0.59089100	        -12.98202073	         -0.67969695	         -1.55872111	          1.59675657	          0.89517925	          0.00047533	          5.60432777	          1.75249728	          2.57280388	         44.82409898	          4.10870937	         -1.17163620	        -43.23149355	        -31.20867878	         -5.62112566	         10.54571523	          7.83918104	         -2.65580775	         -1.43936589	          0.06650129	         11.71356119	          0.44959114	          3.02360082	          2.56916883	         -2.20789746	          1.96430971	        -13.55588576	         19.37343382	         -5.13431000	        -13.45192276	          4.60178382	         30.25977259	         54.14497250	         86.51662706	         86.51662706	          0.08471597	          0.05000014	          0.05000022	          0.09717065	          0.08221112	          0.08577610	          0.09488486	          0.07526316	          0.08257070	          0.07045462	          0.29710914	          0.63242382	          0.39763522	          0.05672326	          0.05000007	          0.05000012	          0.97386062	          0.55551117	          0.23414055	          0.05000018	          0.05000006	          0.05000003	          0.55118996	          0.75134353	          0.50992732	          0.55832023	          0.12567660	          0.56984679	          0.06011839	          0.06485180	          0.05484433	          0.10472392	          0.14830144	          0.06199433	          0.15565237	          0.17410570	          0.15260829	          0.22389981	          0.05961482	          0.05892382	          0.40219811	          0.96102325	          0.90554277	          0.12311036	          0.28016838	          0.05000016	          0.11110523	          0.12587831	          0.16264553	          0.05482782	          0.05482777	          0.05483267	          0.42980172	          0.06012107	          0.42749035	          0.06012084	          0.09217094	          0.09531691	          0.28547665	          0.47374100	          0.40484315	          0.36036441	          0.05008569	          0.05004860	          0.06012348	          0.35786956	          0.38638550	          0.45401888	          0.07229136	          0.07229132	          0.42467565	          0.26281917	          0.67451893	          0.05000004	          0.11883940	          0.12757257	          0.14589346	          0.05482752	          0.05482748	          0.05482752	          0.28830387	          0.05000020	          0.05000025	          0.33949199	          0.36449634	          0.16375495	          0.70876806	          0.86892448	          0.27969190	          0.17063854	          0.05482744	          0.05000016	
          0.59668405	        -12.95058211	         -0.64993050	         -1.46480706	          1.61305194	          0.89315313	          0.00049646	          6.29517685	          1.78374394	          2.44034469	         44.50302398	          4.28173511	         -0.88947411	        -45.11902811	        -31.97074974	         -4.82513678	          9.75742237	          8.16305139	         -3.07101619	         -1.33441895	         -0.06104533	         10.68805484	          0.38701587	          3.10386239	          2.61512359	         -2.16692901	          1.92970977	        -13.55581305	         19.38680574	         -5.06103359	        -13.45033668	          4.66414123	         30.15984975	         53.54763273	         86.51662706	         86.51662706	          0.07725677	          0.05000023	          0.07927082	          0.08861483	          0.07497249	          0.07822359	          0.09303999	          0.06863668	          0.09041021	          0.06425117	          0.27094909	          0.58087424	          0.56545647	          0.13782061	          0.06012081	          0.05000011	          0.98114313	          0.58773166	          0.27960782	          0.06592521	          0.06036766	          0.06592281	          0.50265793	          0.68518807	          0.54480182	          0.50916049	          0.11461086	          0.62305780	          0.05482501	          0.05914164	          0.05001532	          0.09550303	          0.13524357	          0.05653577	          0.14194726	          0.15877587	          0.13917122	          0.21993370	          0.05436582	          0.05373564	          0.37013374	          0.97187363	          0.91864858	          0.12576075	          0.29429150	          0.05000002	          0.10132247	          0.11479479	          0.14832472	          0.05000028	          0.05000023	          0.05000471	          0.39195787	          0.05482746	          0.38985002	          0.05482753	          0.08405536	          0.08692461	          0.26034129	          0.62035829	          0.40100000	          0.34477069	          0.05000035	          0.07230252	          0.05482979	          0.35124769	          0.39819136	          0.45203201	          0.06592622	          0.06592622	          0.58496392	          0.23968640	          0.76519906	          0.06592599	          0.27227678	          0.26351556	          0.27232882	          0.05000000	          0.05000001	          0.05000000	          0.35727123	          0.05000125	          0.05000031	          0.38296642	          0.33240261	          0.14933641	          0.65851085	          0.87258504	          0.25506528	          0.16797938	          0.05000000	          0.05000025	
